<?xml version="1.0" encoding="utf-8"?>
<!-- Svg Vector Icons : http://www.onlinewebfonts.com/icon -->
<!DOCTYPE svg PUBLIC "-//W3C//DTD SVG 1.1//EN" "http://www.w3.org/Graphics/SVG/1.1/DTD/svg11.dtd">
<svg version="1.1" xmlns="http://www.w3.org/2000/svg" xmlns:xlink="http://www.w3.org/1999/xlink" x="0px" y="0px" viewBox="0 0 256 256" enable-background="new 0 0 256 256" xml:space="preserve">
<metadata> Svg Vector Icons : http://www.onlinewebfonts.com/icon </metadata>
<g><g><path fill="#000000" d="M207.5,10.8H46.8C26.7,10.8,10,27.6,10,47.7V210c0,18.4,16.7,35.2,36.8,35.2h162.4c20.1,0,36.8-16.7,36.8-36.8V47.7C244.3,27.6,227.6,10.8,207.5,10.8L207.5,10.8z M199.1,168.2c-1.7,5-5,6.7-13.4-10c-1.7,5-10,18.4-11.7,20.1c0,0,10,0,10,10c3.3,5,1.7,10,1.7,10c-1.7,5-28.5,20.1-53.6,1.7h-10c0,0-20.1,16.7-46.9,5c-13.4-5-10-15.1-8.4-16.7c-1.7-3.3,1.7-8.4,10-10c0,0-8.4-8.4-11.7-20.1c0,0-6.7,13.4-13.4,11.7c-5-1.7-5-35.2,13.4-50.2c0,0-5-8.4,0-13.4c0,0-1.7-5,5-10c1.7,0,1.7-51.9,51.9-53.6c21.8-1.7,53.6,13.4,55.2,53.6c0,0,10,6.7,5,21.8C185.7,121.3,205.8,144.7,199.1,168.2L199.1,168.2z"/></g></g>
</svg>